<svg xmlns="http://www.w3.org/2000/svg" viewBox="0 0 126.67 126.67">
  <path
    d="M63.33 0C28.35 0 0 28.36 0 63.33c0 21.21 10.43 39.99 26.44 51.48 2.53 1.83 5.2 3.46 8 4.9 8.66 4.45 18.48 6.96 28.89 6.96s20.24-2.51 28.9-6.97c2.79-1.43 5.47-3.06 8-4.89 16.01-11.49 26.44-30.27 26.44-51.48C126.67 28.36 98.31 0 63.33 0Zm28.9 110.5c-8.41 5.18-18.31 8.17-28.9 8.17s-20.48-2.99-28.89-8.17v-4.18c0-15.01 12.21-27.22 27.22-27.22h3.35c15.01 0 27.22 12.21 27.22 27.22v4.18ZM47.44 50.76c0-8.76 7.13-15.89 15.89-15.89S79.22 42 79.22 50.76s-7.13 15.89-15.89 15.89-15.89-7.13-15.89-15.89Zm52.74 53.81C99.42 88.94 88.48 76 73.85 72.22c7.92-3.89 13.37-12.04 13.37-21.46 0-13.19-10.69-23.89-23.89-23.89s-23.89 10.7-23.89 23.89c0 9.43 5.46 17.57 13.38 21.46C38.19 76 27.24 88.95 26.49 104.58 15.15 94.44 8 79.71 8 63.33 8 32.82 32.82 8 63.33 8s55.34 24.82 55.34 55.33c0 16.37-7.15 31.11-18.49 41.24Z"
  />
</svg>